<?xml version="1.0" encoding="utf-8"?>
<!-- Generator: Adobe Illustrator 23.1.1, SVG Export Plug-In . SVG Version: 6.00 Build 0)  -->
<svg version="1.1" id="Layer_1" xmlns="http://www.w3.org/2000/svg" xmlns:xlink="http://www.w3.org/1999/xlink" x="0px" y="0px"
	 viewBox="0 0 813.6 84.7" style="enable-background:new 0 0 813.6 84.7;" xml:space="preserve">
<style type="text/css">
	.st0{fill:#FFFFFF;}
	.st1{clip-path:url(#SVGID_2_);}
	.st2{clip-path:url(#SVGID_4_);}
	.st3{clip-path:url(#SVGID_6_);}
	.st4{clip-path:url(#SVGID_8_);}
	.st5{clip-path:url(#SVGID_10_);}
	.st6{clip-path:url(#SVGID_12_);}
	.st7{clip-path:url(#SVGID_14_);}
	.st8{clip-path:url(#SVGID_16_);}
	.st9{clip-path:url(#SVGID_18_);}
	.st10{clip-path:url(#SVGID_20_);}
	.st11{clip-path:url(#SVGID_22_);}
	.st12{clip-path:url(#SVGID_24_);}
</style>
<g>
	<path class="st0" d="M698.7,33.5V9.4h11.7c9.5,0,14.3,4.5,14.3,12.1s-4.8,12-14.3,12H698.7z M731,73.6h11.3l-25.1-32.4
		c10.7-2,17.2-9.5,17.2-19.9c0-12.4-9.1-20.5-23.4-20.5h-21.6v72.7h9.3V41.7h8L731,73.6z M579.1,36.7V9.5h11c10.4,0,16,5.1,16,13.6
		s-5.5,13.6-16,13.6H579.1z M569.8,73.6h9.3V45.3h11.2c15.3,0,25.2-8.7,25.2-22.2c0-13.7-9.9-22.2-25.2-22.2h-20.6L569.8,73.6
		L569.8,73.6z M535.7,74.4c14.2,0,23-8.3,23-20.2c0-10.2-7.3-16.3-17.1-20.6l-6.7-2.9c-7.7-3.4-10.8-7-10.8-12.3
		c0-6,5.4-9.5,11.6-9.5c6.4,0,10.3,2.5,14.1,7l6.6-6.6c-5-6.1-12.5-9.5-20.4-9.3c-10.8,0-21.2,7.2-21.2,18.2
		c0,9.1,4.8,15.9,15.9,20.6l6.7,2.9c7.8,3.4,11.9,6.9,11.9,13.5c0,6.4-5.3,10.2-13.7,10.2c-7.1,0-13-4-16.5-8.5L512,63
		C516.4,69.3,525.2,74.4,535.7,74.4"/>
	<path class="st0" d="M766.4,39.1H766l35.7,35.2l11.9-0.3l-35.3-35.2l33-36l-11.4-0.2L766.4,39.1z"/>
	<path class="st0" d="M749.6,0.9h8.9v72.7h-8.9V0.9z"/>
	<path class="st0" d="M654.5,42.6l5.1,10.8h-31.5l0.2-0.5L643.7,20L654.5,42.6z M679.2,73.6L643.8,0.1l-35.4,73.5h10.3l5.4-11.6
		h39.6l5.5,11.6H679.2z"/>
</g>
<g>
	<defs>
		<rect id="SVGID_1_" x="-0.7" y="-11.2" width="501.3" height="105.4"/>
	</defs>
	<clipPath id="SVGID_2_">
		<use xlink:href="#SVGID_1_"  style="overflow:visible;"/>
	</clipPath>
	<g class="st1">
		<path class="st0" d="M63.5,77.8c8.9-0.7,17.7-3.7,17.7-13.1V35l-4-4.1l-4.4,4.4v22.3l3.7,3.3L68,68.4h-0.8l-8.3-7.1l2.2-2.2V13.7
			c-0.1-2.7-2-5-4.7-5.6V7.3c1.2-0.5,2.4-0.7,3.7-0.7c2.8,0,5.5,1.7,6.2,3.6h0.3c1.6-2.3,4.3-3.7,7.1-3.7c0.9,0,1.8,0.1,2.7,0.3v0.9
			c-1.5,0.4-3.6,2.2-3.6,6.8v18.9l10.9-10.5h0.8c0.8,0.8,5.6,5.1,6.5,5.7c0.4,0.3,1,0.4,1.5,0.4c0.8,0,1.6-0.3,2.3-0.7v1.2
			c-1.2,1-1.9,2.5-2,4.1v25.7c0,11.4-12.5,18.3-29.3,19.5V77.8z M59.3,7.9l-0.1,0.3c2,0.8,3.3,2.8,3.2,5v46.3l-1.8,1.8l7,5.9
			l2.1-1.7l-5.6-4.6l1-0.9V13.7C65.1,10,61.8,8.2,59.3,7.9 M78.6,74.6c3.3-2.1,6.5-4.7,6.5-9.7V33.4l-5-5.3l-2,2l4.4,4.6v30.2
			c0,4.2-1.5,7.3-4.1,9.4L78.6,74.6z"/>
	</g>
</g>
<g>
	<defs>
		<rect id="SVGID_3_" x="-0.7" y="-11.2" width="501.3" height="105.4"/>
	</defs>
	<clipPath id="SVGID_4_">
		<use xlink:href="#SVGID_3_"  style="overflow:visible;"/>
	</clipPath>
	<g class="st2">
		<path class="st0" d="M99.8,33.2c5.9-3,11.7-6.5,17.1-10.3h0.9c3.2,3.3,7.9,8.6,11.9,12.2V36l-18.2,11.9v7.4
			c3.3,1.9,6.8,3.6,10.3,5l7.4-7.1l0.9,0.9l-14.8,14.3h-1c-5-2.1-11.4-4.9-15.5-7.2c0.7-3.3,1-6.6,0.9-10v-18L99.8,33.2z
			 M116.7,65.5c-5-2.2-9.4-4-13.3-6.2c0.3-1.5,0.3-3.2,0.3-7.9V32.7l-2.6,1.4v17.4c0,4.8-0.1,7.9-0.5,9.2c3.8,2.1,9.3,4.4,14.4,6.7
			L116.7,65.5z M111.4,46.5l8.2-5.6c-2.8-3.2-5.8-6.7-8.2-9.4V46.5z M114,28.3l-2.2,1.5c2.6,3,5.8,6.8,9.1,10.4l2.3-1.5
			C119.9,35.1,116.7,31.2,114,28.3"/>
	</g>
</g>
<g>
	<defs>
		<rect id="SVGID_5_" x="-0.7" y="-11.2" width="501.3" height="105.4"/>
	</defs>
	<clipPath id="SVGID_6_">
		<use xlink:href="#SVGID_5_"  style="overflow:visible;"/>
	</clipPath>
	<g class="st3">
		<path class="st0" d="M458.5,77.7c8.9-0.7,17.7-3.7,17.7-13.1V34.9l-4-4.1l-4.4,4.4v22.3l3.7,3.3l-8.5,7.5h-0.8l-8.3-7.1l2.2-2.2
			V13.6c-0.1-2.7-2-5-4.7-5.6V7.2c1.2-0.5,2.4-0.7,3.7-0.7c2.8,0,5.5,1.7,6.2,3.6h0.3c1.6-2.3,4.3-3.7,7.1-3.7
			c0.9,0,1.8,0.1,2.7,0.3v0.9c-1.5,0.4-3.6,2.2-3.6,6.8v18.9l10.9-10.5h0.8c0.8,0.8,5.6,5.1,6.5,5.7c0.4,0.3,1,0.4,1.5,0.4
			c0.8,0,1.6-0.3,2.3-0.7v1.6c-1.2,1-1.9,2.5-2,4.1v25.4c0,11.4-12.5,18.3-29.3,19.5L458.5,77.7z M454.3,7.8l-0.1,0.3
			c2,0.8,3.3,2.8,3.2,5v46.3l-1.8,1.8l7,5.9l2.1-1.7l-5.6-4.6l1-0.9V13.6C460.1,9.9,456.8,8.1,454.3,7.8 M473.6,74.5
			c3.3-2.1,6.5-4.7,6.5-9.7V33.3l-5-5.3l-2,2l4.4,4.6v30.2c0,4.2-1.5,7.3-4.1,9.4L473.6,74.5z"/>
	</g>
</g>
<g>
	<defs>
		<rect id="SVGID_7_" x="-0.7" y="-11.2" width="501.3" height="105.4"/>
	</defs>
	<clipPath id="SVGID_8_">
		<use xlink:href="#SVGID_7_"  style="overflow:visible;"/>
	</clipPath>
	<g class="st4">
		<path class="st0" d="M208.1,33.1c5.9-3,11.7-6.5,17.1-10.3h0.9c3.2,3.3,7.9,8.6,11.9,12.2v0.9l-18.2,11.9v7.4
			c3.3,1.9,6.8,3.6,10.3,5l7.3-7.1l0.9,0.9l-14.8,14.3h-0.9c-5-2.1-11.4-4.9-15.5-7.2c0.7-3.3,1-6.6,0.9-10v-18L208.1,33.1z
			 M225,65.4c-5-2.2-9.4-4-13.3-6.2c0.3-1.5,0.3-3.2,0.3-7.9V32.6l-2.6,1.4v17.3c0,4.8-0.1,7.9-0.5,9.2c3.8,2.1,9.3,4.4,14.4,6.7
			L225,65.4z M219.7,46.4l8.2-5.6c-2.8-3.2-5.8-6.7-8.2-9.4V46.4z M222.1,28.3l-2.2,1.5c2.6,3,5.8,6.8,9.1,10.4l2.3-1.5
			C228,35.1,224.8,31.2,222.1,28.3"/>
	</g>
</g>
<g>
	<defs>
		<rect id="SVGID_9_" x="-0.7" y="-11.2" width="501.3" height="105.4"/>
	</defs>
	<clipPath id="SVGID_10_">
		<use xlink:href="#SVGID_9_"  style="overflow:visible;"/>
	</clipPath>
	<g class="st5">
		<path class="st0" d="M254.4,12.5v43.9c0.2,2,1.6,3.6,3.5,4l2.6-2.6l0.8,0.9l-9.4,9.6h-0.5c-3.6-0.8-8.6-3.9-8.6-9.5V17.9l-2.6-2.6
			l-2.7,2.7l-0.9-0.9l10.5-10.6h0.7L254.4,12.5z M253.3,65.2c-3.3-0.9-6.6-3.1-6.6-7.7V16l-3.7-3.8l-2,2l3,3.1v41.3
			c0,4.7,3.8,7.7,7.3,8.6L253.3,65.2z"/>
	</g>
</g>
<g>
	<defs>
		<rect id="SVGID_11_" x="-0.7" y="-11.2" width="501.3" height="105.4"/>
	</defs>
	<clipPath id="SVGID_12_">
		<use xlink:href="#SVGID_11_"  style="overflow:visible;"/>
	</clipPath>
	<g class="st6">
		<path class="st0" d="M265.4,33.1c5.9-3,11.7-6.5,17.1-10.3h0.9c3.2,3.3,7.9,8.6,11.9,12.2v0.9l-18.2,11.9v7.4
			c3.3,1.9,6.8,3.6,10.3,5l7.4-7.1l0.9,0.9l-14.8,14.3H280c-5-2.1-11.4-4.9-15.5-7.2c0.7-3.3,1-6.6,0.9-10L265.4,33.1z M282.4,65.4
			c-5-2.2-9.4-4-13.3-6.2c0.3-1.5,0.3-3.2,0.3-7.9V32.6l-2.7,1.4v17.3c0,4.8-0.1,7.9-0.5,9.2c3.8,2.1,9.3,4.4,14.4,6.7L282.4,65.4z
			 M277.1,46.4l8.2-5.6c-2.8-3.3-5.8-6.7-8.2-9.4V46.4z M279.6,28.2l-2.2,1.5c2.6,3,5.8,6.8,9.1,10.4l2.3-1.5
			C285.5,35,282.3,31.1,279.6,28.2"/>
	</g>
</g>
<g>
	<defs>
		<rect id="SVGID_13_" x="-0.7" y="-11.2" width="501.3" height="105.4"/>
	</defs>
	<clipPath id="SVGID_14_">
		<use xlink:href="#SVGID_13_"  style="overflow:visible;"/>
	</clipPath>
	<g class="st7">
		<path class="st0" d="M354.4,34.9v21.5c0.1,2,1.6,3.6,3.5,3.9l2.6-2.6l0.8,0.9l-9.4,9.6h-0.6c-3.5-0.8-8.5-3.9-8.5-9.5V34.3
			l-2.6-2.7l-2.7,2.7l-0.9-0.9l10.5-10.6h0.8l6.7,6.5v3.6l8.5-10.1h0.8c2.1,2.1,4.3,4.2,6.7,6V29l-7.1,8.5h-0.2
			c-2-1.7-4.6-4.1-6.1-5.6L354.4,34.9z M353.3,65.2c-3.4-0.9-6.7-3.1-6.7-7.7V32.4l-3.6-3.7l-2,2l3,3.1v24.9c0,4.7,3.8,7.7,7.3,8.6
			L353.3,65.2z M357.8,31.1c1.5,1.4,3.5,3.3,5.2,4.8l1.7-2c-1.6-1.5-4.1-3.6-5.3-4.8L357.8,31.1z"/>
	</g>
</g>
<g>
	<defs>
		<rect id="SVGID_15_" x="-0.7" y="-11.2" width="501.3" height="105.4"/>
	</defs>
	<clipPath id="SVGID_16_">
		<use xlink:href="#SVGID_15_"  style="overflow:visible;"/>
	</clipPath>
	<g class="st8">
		<path class="st0" d="M381.3,68.4l-10.2-6.8V48.4c2.6-1.8,7.9-5.5,10.4-7.3c-3.6-1.8-6.8-4.3-9.5-7.4v-0.9c5-2.8,9.7-6.1,14-9.9
			h0.8c0,0,12.5,5.9,13.1,6.2c0.6,0.3,1.2,0.5,1.9,0.5c0.9,0,1.7-0.3,2.5-0.7v1.4c-1.2,0.9-2,2.3-2,3.8v22.2c0,2.3,2.1,3.8,3.6,4.2
			l2.6-2.6l0.8,0.9l-9.4,9.6h-0.6c-3.7-1-7.8-4.5-8.5-8.7l-9,8.7L381.3,68.4z M383.5,65.1l-8.5-5.6V47.1l-2.6,1.9v12.1l9.1,6.1
			L383.5,65.1z M390.7,43.5v-6.9l-12-6.3c-1.6,1.2-3.3,2.2-5.1,3.2C376.4,37.2,383.8,41.8,390.7,43.5 M401.3,65.3
			c-3.2-1.2-6.6-3.5-6.6-8V34.2L382,27.9c-0.3,0.3-1.8,1.3-2.2,1.6l12.2,6.3v22.5c0,4.4,4,7.7,7.3,8.9L401.3,65.3z M390.7,58.2V44.8
			c-2.7-0.8-5.4-1.8-7.9-3.1v16.6l4.7,2.9L390.7,58.2z"/>
	</g>
</g>
<g>
	<defs>
		<rect id="SVGID_17_" x="-0.7" y="-11.2" width="501.3" height="105.4"/>
	</defs>
	<clipPath id="SVGID_18_">
		<use xlink:href="#SVGID_17_"  style="overflow:visible;"/>
	</clipPath>
	<g class="st9">
		<path class="st0" d="M299.6,61.4v-28l14.9-10.3h0.9c2.9,1.2,12.4,5.3,13.6,5.8c0.5,0.2,1,0.3,1.5,0.3c1,0,1.9-0.3,2.8-0.8v1.5
			c-1.1,1-1.9,2.3-2.1,3.8v23.8c0,5.6,1.2,8.8,3.4,11.1v0.9c-3.3,3.3-10.9,11.1-14.2,15.2h-0.6c-4.1-2.1-8.5-3.1-13.1-3.2
			c-3.5-0.1-7,1-9.8,3.1l-0.7-0.6c2.6-6,8-12,15-12c4.4,0,10,1.8,14.9,4.4c-3.8-4.7-6-10.5-6.4-16.5l-8.8,8.5h-0.7L299.6,61.4z
			 M306.8,77.8c-3.1,0-6,1.3-7.9,3.7v0.4c2.4-1.3,5.2-1.9,7.9-1.8c4.4,0,9.9,1.2,13.1,3l1.7-2C317,78.9,311.9,77.8,306.8,77.8
			 M310.4,67l2.1-1.9l-8.9-5.7V32.3l-2.6,1.8v26.6L310.4,67z M323.6,32.5l-12.4-5.2V30l9.7,4.2v25.3c0.2,5.8,2.3,11.4,6.1,15.9l2-2
			c-3.2-4.2-5.4-8.9-5.4-14.4L323.6,32.5z M319.7,58.1V35l-8.5-3.7v26.2l5.3,3.5L319.7,58.1z"/>
	</g>
</g>
<g>
	<defs>
		<rect id="SVGID_19_" x="-0.7" y="-11.2" width="501.3" height="105.4"/>
	</defs>
	<clipPath id="SVGID_20_">
		<use xlink:href="#SVGID_19_"  style="overflow:visible;"/>
	</clipPath>
	<g class="st10">
		<path class="st0" d="M426.9,33.4L437.8,23h0.8c0.8,0.8,5.8,5.3,6.6,5.8c0.5,0.3,1,0.4,1.5,0.3c0.8,0,1.6-0.3,2.3-0.7V30
			c-1.2,1-1.9,2.5-2,4.1v26.8c-4.7,1.1-8.5,3.7-12.5,8.4h-0.3l-7.3-1.5v5.9l3.8,3.4l-8.9,7.4h-0.5l-8.4-7.1l2.2-2.4v-9.9
			c-1.1-0.2-2.3-0.4-3.4-0.7v-1.2c1-0.4,3.6-3,3.6-5.1V34.4l-2.6-2.7l-2.7,2.7l-0.9-0.9l10.5-10.6h0.8l6.6,6.5v4H426.9z M416.6,75.7
			l-1.8,1.7l6.8,5.8l2.1-1.8l-5.3-4.4l0.9-0.9V32.7l-3.8-3.8l-1.9,1.9l3,3.1L416.6,75.7z M435.4,59.2v-24l-4-4.1l-4.4,4.2v22.3
			C428.9,58,434.3,59,435.4,59.2 M434.1,67.9c0.6-0.8,1.2-1.5,1.9-2.1l-9.1-1.9v2.5L434.1,67.9z M432.2,30.3l4.5,4.4v24.4l2.6-1.5
			V33.3l-5.1-5.1L432.2,30.3z"/>
	</g>
</g>
<g>
	<defs>
		<rect id="SVGID_21_" x="-0.7" y="-11.2" width="501.3" height="105.4"/>
	</defs>
	<clipPath id="SVGID_22_">
		<use xlink:href="#SVGID_21_"  style="overflow:visible;"/>
	</clipPath>
	<g class="st11">
		<path class="st0" d="M3.6,43.7c0-10.7,8.1-18.1,15.6-21.5l0.5,0.7C17,26.1,15,29.1,15,35.6c0,7.4,2,12.6,5,16
			c1-1.3,1.6-2.9,1.6-4.5V36l13.7-9.7l0.6,0.8c-1.3,1.7-2,3.8-1.9,5.9v7.1c0,5-8.1,10.3-13.2,12.3c3.3,3.3,8,4.6,13.1,4.6
			c1.7,0,3.3-0.1,5-0.3v-31c-4.2-0.4-8.4-1.3-12.5-2.5c-4.1-1.2-8.3-2.3-11.9-2.3c-5.5,0-12.1,1.9-12.2,9.8c0,0.8,0.1,1.5,0.2,2.3
			l-1,0.3C0.6,31,0.1,28.5,0,26C-0.1,16.3,7,7.9,18.4,7.9c4.5,0.2,9,0.9,13.3,2.3c4.3,1.2,8.5,2.3,12.7,2.3c2.1,0,3.4-1.1,3.4-3.2
			c0.2-1.7-0.9-3.2-2.6-3.5l0.2-1c4.9,0.9,10.2,3.8,10.2,9.9c0,7.4-5.4,10.9-14.4,10.9h-0.9v30.8c5.4-0.8,10.1-3.9,12.9-8.6l0.9,0.5
			c-3.3,10.5-11.1,20.5-25,20.5S3.6,60.7,3.6,43.7 M41.1,21.9c-10.1,0-19.1-5-26.5-5c-4.7,0-10.2,1.9-12.1,7.4l0.3,0.1
			c2.2-3.8,7.3-5,11.8-5c7.4,0,16.4,5,26.5,5c8.1,0,12.8-2.7,13.6-9.2l-0.4-0.1C53.1,20.2,49.2,21.9,41.1,21.9 M12.2,28.1
			c-3.8,3.8-7.3,9-7.3,15.6c0,15.8,10.7,23.8,24.1,23.8c8.4,0,14.2-4.5,17.6-8l-0.2-0.3c-3.9,3.2-9.3,5.7-17.4,5.7
			c-10.9,0-21.3-6.7-21.3-21.2c0-5.5,1.7-10.8,4.8-15.3L12.2,28.1z M25.6,46.4l-0.1-11.6l-2.6,1.8v10.9c0,1-0.2,2-0.6,3h0.3
			C24.3,49.4,25.6,47.8,25.6,46.4"/>
	</g>
</g>
<g>
	<defs>
		<rect id="SVGID_23_" x="-0.7" y="-11.2" width="501.3" height="105.4"/>
	</defs>
	<clipPath id="SVGID_24_">
		<use xlink:href="#SVGID_23_"  style="overflow:visible;"/>
	</clipPath>
	<g class="st12">
		<path class="st0" d="M152.5,43.7c0-10.7,8.1-18.1,15.6-21.5l0.5,0.7c-2.7,3.2-4.7,6.2-4.7,12.7c0,7.4,2,12.6,5,16
			c1-1.3,1.6-2.9,1.6-4.5V36l13.6-9.7l0.6,0.8c-1.3,1.7-2,3.8-1.9,5.9v7.1c0,5-8.1,10.3-13.2,12.3c3.3,3.3,8,4.6,13.1,4.6
			c1.7,0,3.3-0.1,5-0.3v-31c-4.2-0.4-8.4-1.3-12.5-2.5c-4.1-1.2-8.3-2.3-11.9-2.3c-5.5,0-12.1,1.9-12.2,9.8c0,0.8,0.1,1.5,0.2,2.3
			l-1,0.3c-0.9-2.3-1.4-4.8-1.5-7.3c-0.1-9.7,7-18.1,18.4-18.1c4.5,0.2,9,0.9,13.3,2.3c4.3,1.2,8.5,2.3,12.7,2.3
			c2.1,0,3.4-1.1,3.4-3.2c0.2-1.7-0.9-3.2-2.6-3.5l0.2-1c4.9,0.9,10.2,3.8,10.2,9.9c0,7.4-5.4,10.9-14.4,10.9h-0.9v30.8
			c5.4-0.8,10.1-3.9,12.9-8.6l0.9,0.5c-3.3,10.5-11.1,20.5-25,20.5S152.5,60.7,152.5,43.7 M190,21.9c-10.1,0-19.1-5-26.5-5
			c-4.7,0-10.2,1.9-12.1,7.4l0.3,0.1c2.2-3.8,7.3-5,11.8-5c7.4,0,16.4,5,26.5,5c8.1,0,12.8-2.7,13.6-9.2l-0.4-0.1
			C202,20.2,198.2,21.9,190,21.9 M161.2,28.1c-3.8,3.8-7.3,9-7.3,15.6c0,15.8,10.7,23.8,24.1,23.8c8.4,0,14.2-4.5,17.6-8l-0.2-0.3
			c-3.9,3.2-9.3,5.7-17.4,5.7c-10.9,0-21.3-6.7-21.3-21.2c0-5.5,1.7-10.8,4.8-15.3L161.2,28.1z M174.6,46.4l-0.1-11.6l-2.6,1.8v10.9
			c0,1-0.2,2-0.6,3h0.3C173.3,49.4,174.6,47.8,174.6,46.4"/>
	</g>
</g>
</svg>
